<?xml version="1.0" encoding="UTF-8" standalone="no"?>
<svg
   xmlns:dc="http://purl.org/dc/elements/1.1/"
   xmlns:cc="http://creativecommons.org/ns#"
   xmlns:rdf="http://www.w3.org/1999/02/22-rdf-syntax-ns#"
   xmlns:svg="http://www.w3.org/2000/svg"
   xmlns="http://www.w3.org/2000/svg"
   xmlns:sodipodi="http://sodipodi.sourceforge.net/DTD/sodipodi-0.dtd"
   xmlns:inkscape="http://www.inkscape.org/namespaces/inkscape"
   inkscape:version="1.0 (4035a4fb49, 2020-05-01)"
   height="250.16389"
   width="265.04645"
   sodipodi:docname="android-logo.svg"
   id="svg14"
   xml:space="preserve"
   viewBox="0 0 265.04645 250.16389"
   y="0px"
   x="0px"
   version="1.1"><metadata
   id="metadata20"><rdf:RDF><cc:Work
       rdf:about=""><dc:format>image/svg+xml</dc:format><dc:type
         rdf:resource="http://purl.org/dc/dcmitype/StillImage" /><dc:title></dc:title></cc:Work></rdf:RDF></metadata><defs
   id="defs18" /><sodipodi:namedview
   inkscape:current-layer="svg14"
   inkscape:window-maximized="1"
   inkscape:window-y="-11"
   inkscape:window-x="-11"
   inkscape:cy="160.83749"
   inkscape:cx="159.47286"
   inkscape:zoom="2.077532"
   showgrid="false"
   id="namedview16"
   inkscape:window-height="1334"
   inkscape:window-width="2160"
   inkscape:pageshadow="2"
   inkscape:pageopacity="0"
   guidetolerance="10"
   gridtolerance="10"
   objecttolerance="10"
   borderopacity="1"
   bordercolor="#666666"
   pagecolor="#ffffff" />
<style
   id="style2"
   type="text/css">
	.st0{fill:#3DDB85;}
	.st1{fill:none;}
</style>
<g
   transform="translate(-100.60014,-41.395272)"
   id="Layer_1">
	<g
   id="g10">
		<g
   id="g6">
			<path
   id="path4"
   d="m 293.91034,212.77477 c -6.02515,0 -10.92627,-4.90459 -10.92627,-10.92982 0,-6.02523 4.90112,-10.92628 10.92627,-10.92628 6.02536,0 10.92627,4.90105 10.92627,10.92628 0,6.02523 -4.90091,10.92982 -10.92627,10.92982 m -120.77423,0 c -6.02538,0 -10.92627,-4.90459 -10.92627,-10.92982 0,-6.02523 4.90089,-10.92628 10.92627,-10.92628 6.02515,0 10.92625,4.90105 10.92625,10.92628 0,6.02523 -4.90111,10.92982 -10.92625,10.92982 m 124.69308,-65.82016 21.83826,-37.82177 c 1.25195,-2.17392 0.50714,-4.95069 -1.66324,-6.2061 -2.17035,-1.25186 -4.95068,-0.50713 -6.20609,1.66323 l -22.11142,38.30052 c -16.909,-7.71684 -35.8996,-12.015 -56.1636,-12.015 -20.26378,0 -39.25438,4.29816 -56.16338,12.015 l -22.1114,-38.30052 c -1.25543,-2.17036 -4.03575,-2.91509 -6.20612,-1.66323 -2.17036,1.25541 -2.91862,4.03218 -1.66321,6.2061 l 21.83824,37.82177 c -37.49896,20.39503 -63.14611,58.35866 -66.89809,103.20929 h 262.40811 c -3.75542,-44.85064 -29.40257,-82.81426 -66.89806,-103.20929"
   class="st0" />
		</g>
		<rect
   y="0"
   x="0"
   id="rect8"
   height="250.16389"
   width="467.04645"
   class="st1" />
	</g>
</g>
<g
   id="Layer_2">
</g>
</svg>
